<svg width="50" height="50" viewBox="0 0 50 50" fill="none" xmlns="http://www.w3.org/2000/svg">
<g clip-path="url('#clip0_510_11601')">
<path d="M49.0388 31.0964V34.558C49.0388 36.01 47.8562 37.1927 46.4042 37.1927C46.106 37.1927 45.8465 37.3754 45.7408 37.6639C45.616 37.9715 45.51 38.2407 45.3851 38.51C45.241 38.8556 45.3185 39.1406 45.5197 39.3272C46.5486 40.356 46.5486 42.0389 45.5197 43.0674L43.0678 45.5193C42.0581 46.5098 40.337 46.5 39.3468 45.5193C39.1159 45.2884 38.7988 45.2598 38.5101 45.3847C38.3273 45.4712 38.1254 45.5483 37.9234 45.6348C37.8265 45.6972 37.1928 45.8098 37.1928 46.3944C37.1928 47.8561 36.0101 49.0388 34.5581 49.0388H31.0965C29.6445 49.0388 28.4619 47.8561 28.4619 46.4041C28.4619 46.0965 28.2599 45.8367 27.9617 45.7118C27.878 45.6825 27.1836 45.4084 27.1731 45.4042C26.8272 45.2406 26.5771 45.2985 26.3752 45.4617L26.3176 45.5193C25.3271 46.5 23.5964 46.5 22.606 45.5193L20.1444 43.0674C19.654 42.5676 19.375 41.9039 19.375 41.1924V41.0675H22.1059C24.577 41.0675 26.6347 39.2117 26.9423 36.808C26.9713 36.7982 26.9999 36.7888 27.0386 36.779C27.5387 37.1637 28.1155 37.433 28.7308 37.5962C29.8368 38.5578 31.2789 39.1252 32.8365 39.1252C36.3075 39.1252 39.1249 36.3078 39.1249 32.8368C39.1249 31.2886 38.5672 29.8559 37.6155 28.7502C37.4519 28.1444 37.1732 27.5578 36.7787 27.0291C36.7885 27.0001 36.8077 26.9715 36.8171 26.9426C39.2114 26.635 41.0673 24.5772 41.0673 22.0964V19.3945C41.7886 19.3561 42.5385 19.6062 43.0671 20.1349L45.519 22.5868C46.0094 23.0869 46.2884 23.7503 46.2884 24.4618C46.2884 25.1635 46.0097 25.8272 45.519 26.327C45.2728 26.5733 45.2592 26.884 45.3746 27.154C45.4995 27.4135 45.6149 27.6925 45.7112 27.9617C45.8266 28.2599 46.0861 28.4521 46.3843 28.4521C47.8561 28.4521 49.0388 29.6348 49.0388 31.0965L49.0388 31.0964Z" fill="#907F53"></path>
<path d="M36.1723 15.0284C35.7398 15.0284 35.3645 14.7591 35.2013 14.3266C35.0764 13.9998 34.9418 13.6727 34.7974 13.3748C34.6244 12.9807 34.6726 12.5381 34.932 12.2403L34.9896 12.1827C35.5473 11.6348 35.8549 10.8943 35.8647 10.1058C35.8647 9.30778 35.557 8.56738 34.9994 7.99988L32.0861 5.08586C30.9899 3.99943 29.1149 3.9705 27.9897 5.01855C27.9608 5.03773 27.9224 5.06668 27.8935 5.09528C27.5953 5.39347 27.1049 5.46079 26.7205 5.28745C26.4129 5.14305 26.0857 5.00878 25.7492 4.88357C25.3261 4.72976 25.0569 4.34507 25.0569 3.91223C25.0569 3.12366 24.7492 2.38321 24.1916 1.82589C23.6339 1.27832 22.8742 0.960938 22.1052 0.960938H17.9803C16.3554 0.960938 15.0381 2.28799 15.0381 3.9129C15.0381 4.34573 14.7594 4.73007 14.3168 4.89362C13.9994 5.00906 13.682 5.14334 13.3744 5.28773C12.9611 5.47049 12.4801 5.39341 12.1725 5.07638C11.0474 3.98021 9.15324 3.97039 8.00887 5.08579L5.08583 8.00883C4.52814 8.57628 4.22053 9.31668 4.22053 10.105C4.23029 10.8646 4.50897 11.5761 5.02829 12.1146C5.05724 12.153 5.07642 12.1819 5.10502 12.2109C5.41263 12.5185 5.48971 12.9803 5.32614 13.3552C5.16257 13.6726 5.03771 13.9896 4.90308 14.3359C4.74927 14.759 4.36493 15.0282 3.9129 15.0282C2.28799 15.0282 0.960938 16.3549 0.960938 17.9799V22.0954C0.960938 23.7302 2.28799 25.0569 3.92237 25.0569C4.34543 25.0569 4.73013 25.3355 4.88397 25.7394C5.00883 26.0854 5.15322 26.4028 5.29727 26.7201C5.48003 27.1338 5.40295 27.5952 5.09533 27.9028C4.53799 28.4703 4.23038 29.2013 4.23038 29.9895C4.23038 30.7973 4.53799 31.5377 5.09568 32.0857L8.00898 34.9993C9.12434 36.1147 11.0667 36.1147 12.182 34.9993C12.4223 34.7492 12.7013 34.7011 12.8935 34.7011C13.0473 34.7011 13.2011 34.7395 13.3741 34.8166C13.6915 34.9512 14.0085 35.0858 14.3259 35.2107C14.7587 35.3645 15.0374 35.7492 15.0374 36.1914C15.0374 37.8163 16.3547 39.1434 17.9796 39.1434H22.1046C23.7295 39.1434 25.0565 37.8163 25.0565 36.1819C25.0565 35.7491 25.3258 35.3742 25.7778 35.2106C25.874 35.1625 25.9797 35.1241 26.076 35.076C26.3069 34.9992 26.5374 34.903 26.7299 34.8067C27.1338 34.624 27.6144 34.701 27.9029 34.9895C27.9318 35.0184 27.9702 35.0568 27.9991 35.076C29.1243 36.1146 30.9993 36.0857 32.0857 34.9992L34.9994 32.0859C36.1437 30.9322 36.1437 29.0572 34.9994 27.9031C34.8166 27.7203 34.711 27.4608 34.711 27.1916C34.711 27.028 34.7493 26.8648 34.8166 26.7012L34.9223 26.4703C34.9799 26.3455 35.0378 26.2108 35.0953 26.0665L35.2202 25.7491C35.374 25.326 35.7587 25.0568 36.1915 25.0568C37.8164 25.0568 39.1435 23.7297 39.1435 22.0953V17.9798C39.1435 16.3549 37.8168 15.0281 36.1723 15.0281L36.1723 15.0284ZM28.7396 25.2685C26.9703 28.2108 23.7493 30.182 20.0569 30.182C16.355 30.182 13.1338 28.2108 11.3645 25.2685C10.4413 23.7395 9.92237 21.9514 9.92237 20.0568C9.92237 14.4608 14.4609 9.92201 20.0572 9.92201C25.6438 9.92201 30.1822 14.4606 30.1822 20.0568C30.1825 21.9514 29.6632 23.7395 28.74 25.2685H28.7396Z" fill="#907F53"></path>
<path d="M23.8657 16.4994C23.8657 18.5987 22.1571 20.3073 20.0579 20.3073C17.9587 20.3073 16.25 18.5986 16.25 16.4994C16.25 14.4078 17.9587 12.6992 20.0579 12.6992C22.1575 12.6992 23.8657 14.4079 23.8657 16.4994Z" fill="#907F53"></path>
<path d="M27.134 24.2206C27.1149 24.2398 27.1051 24.2589 27.0957 24.2781C25.5956 26.7688 22.9609 28.259 20.0571 28.259C17.1434 28.259 14.5088 26.7688 13.0091 24.2781C12.9993 24.2589 12.9899 24.2398 12.9707 24.2206C14.9228 22.5283 17.413 21.5859 20.0574 21.5859C22.7014 21.5859 25.1822 22.5283 27.134 24.2206H27.134Z" fill="#907F53"></path>
</g>
<defs>
<clipPath id="clip0_510_11601">
<rect width="50" height="50" fill="white"></rect>
</clipPath>
</defs>
</svg>
