<svg width="20" height="20" viewBox="0 0 20 20" fill="none" xmlns="http://www.w3.org/2000/svg">
  <g clip-path="url('#clip0_510_27393')">
    <path d="M18.3333 5.83268H12.5V4.16602H18.3333V5.83268ZM19.7717 14.166C19.4033 15.2468 18.0808 16.666 15.5208 16.666C12.9592 16.666 10.8842 15.2252 10.8842 11.9368C10.8842 8.67852 12.8217 7.00352 15.4392 7.00352C18.0075 7.00352 19.5758 8.48852 19.9183 10.6918C19.9833 11.1135 20.0092 11.6818 19.9975 12.4752H13.3083C13.4167 15.151 16.2108 15.2352 17.1317 14.166H19.7717ZM13.3667 10.8327H17.5042C17.4167 9.54352 16.5575 8.98352 15.44 8.98352C14.2183 8.98352 13.5425 9.62352 13.3667 10.8327ZM5.38833 16.656H0V4.18352H5.79417C10.3575 4.25102 10.4442 8.72018 8.06083 9.93852C10.945 10.9885 11.0417 16.656 5.38833 16.656ZM2.5 9.16602H5.48667C7.57667 9.16602 7.90833 6.66602 5.22667 6.66602H2.5V9.16602ZM5.32583 11.666H2.5V14.1793H5.28417C7.83 14.1793 7.67417 11.666 5.32583 11.666Z" fill="#7C7C7C"></path>
  </g>
  <defs>
    <clipPath id="clip0_510_27393">
      <rect width="20" height="20" fill="white"></rect>
    </clipPath>
  </defs>
</svg>