<svg width="50" height="50" viewBox="0 0 50 50" fill="none" xmlns="http://www.w3.org/2000/svg">
<path fill-rule="evenodd" clip-rule="evenodd" d="M8.95495 42.8408V8.91807C8.95887 7.9721 9.33773 7.06657 10.008 6.399C10.6782 5.73188 11.5858 5.35693 12.5314 5.35693H39.3004V3.57681C39.3004 2.63083 38.9255 1.72369 38.2584 1.05301C37.5909 0.382751 36.6853 0.00431727 35.7393 0H7.17402C6.22844 0.00431416 5.32252 0.382781 4.65535 1.05301C3.98784 1.72366 3.61328 2.63082 3.61328 3.57681V39.2646C3.61328 40.2129 3.99018 41.1228 4.66087 41.7935C5.33152 42.4641 6.24099 42.8411 7.18979 42.8411L8.95495 42.8408Z" fill="#907F53"></path>
<path fill-rule="evenodd" clip-rule="evenodd" d="M45.3291 9.96436C44.6581 9.2937 43.7478 8.91717 42.7991 8.91797H15.7951C14.8491 8.92189 13.9436 9.30075 13.276 9.97098C12.6089 10.6412 12.2344 11.5488 12.2344 12.4944V46.401C12.2344 47.347 12.6089 48.2541 13.276 48.9248C13.9436 49.5951 14.8491 49.9735 15.7951 49.9778H42.8764C43.8248 49.9778 44.7347 49.6009 45.4054 48.9302C46.076 48.2592 46.4529 47.3497 46.4529 46.401V12.4944C46.4329 11.5343 46.0278 10.6224 45.3285 9.96436H45.3291ZM29.3362 40.1541H21.1522V36.5934H29.3362V40.1541ZM37.5201 31.2364H21.1526V27.66H37.5201V31.2364ZM37.5201 22.3188L21.1526 22.3184V18.742H37.5201V22.3188Z" fill="#907F53"></path>
</svg>
