<svg width="25" height="25" viewBox="0 0 25 25" fill="none" xmlns="http://www.w3.org/2000/svg">
<path d="M22.9124 1.05476C22.5219 0.664239 21.8887 0.664239 21.4982 1.05476L13.2075 9.34541C12.817 9.73593 12.1839 9.73593 11.7933 9.34541L3.50268 1.05476C3.11216 0.66424 2.47899 0.664239 2.08847 1.05476L1.05476 2.08847C0.664239 2.47899 0.664239 3.11216 1.05476 3.50268L9.34541 11.7933C9.73593 12.1839 9.73593 12.817 9.34541 13.2075L1.05476 21.4982C0.66424 21.8887 0.664239 22.5219 1.05476 22.9124L2.08847 23.9461C2.47899 24.3366 3.11216 24.3366 3.50268 23.9461L11.7933 15.6555C12.1839 15.2649 12.817 15.2649 13.2075 15.6555L21.4982 23.9461C21.8887 24.3366 22.5219 24.3366 22.9124 23.9461L23.9461 22.9124C24.3366 22.5219 24.3366 21.8887 23.9461 21.4982L15.6555 13.2075C15.2649 12.817 15.2649 12.1839 15.6555 11.7933L23.9461 3.50268C24.3366 3.11216 24.3366 2.47899 23.9461 2.08847L22.9124 1.05476Z" fill="#F8F8F8"></path>
</svg>
