<svg width="50" height="50" viewBox="0 0 50 50" fill="none" xmlns="http://www.w3.org/2000/svg">
<path fill-rule="evenodd" clip-rule="evenodd" d="M30.2803 5.81593C31.7343 6.30046 32.4611 7.51218 32.4611 8.96613L23.2532 42.8892C22.7687 43.8582 21.7993 44.5855 20.8302 44.5855H20.1034C18.6495 44.1009 17.9227 42.8892 18.165 41.4353L27.3729 7.51218C27.6147 6.30045 29.0687 5.57372 30.2804 5.81593H30.2803ZM39.0033 13.8121L48.6956 23.5044C49.6646 24.4734 49.6646 25.9274 48.6956 26.8968L39.0033 36.5891C38.5188 37.0736 37.7916 37.3159 37.307 37.3159C36.8225 37.3159 36.0953 37.0736 35.6108 36.5891C34.6418 35.6201 34.6418 34.1661 35.6108 33.1967L43.6069 25.2005L35.6108 17.2044C34.6418 16.2354 34.6418 14.7814 35.6108 13.812C36.5802 12.843 38.0338 12.843 39.0032 13.812L39.0033 13.8121ZM14.7725 13.8121C15.7416 14.7811 15.7416 16.2351 14.7725 17.2045L6.77637 25.2006L14.7725 33.1968C15.7416 34.1658 15.7416 35.6198 14.7725 36.5892C14.288 37.0737 13.8035 37.316 13.0763 37.316C12.3495 37.316 11.8645 37.0737 11.38 36.5892L1.68772 26.8969C0.718678 25.9279 0.718678 24.4739 1.68772 23.5045L11.38 13.8122C12.3494 12.8431 13.803 12.8431 14.7724 13.8122L14.7725 13.8121Z" fill="#907F53"></path>
</svg>
