<svg width="40" height="40" viewBox="0 0 40 40" fill="none" xmlns="http://www.w3.org/2000/svg">
<rect width="40" height="40" rx="20" fill="#001322"></rect>
<g clip-path="url('#clip0_1054_499')">
<path d="M18 12.2778C18.0976 12.3964 18.1574 12.5416 18.1717 12.6945C18.1859 12.8475 18.154 13.0012 18.08 13.1358C17.5019 14.1973 17.1999 15.3871 17.202 16.5958C17.202 20.6168 20.48 23.8728 24.52 23.8728C25.047 23.8728 25.56 23.8178 26.053 23.7128C26.2041 23.6801 26.3615 23.6926 26.5056 23.7488C26.6497 23.805 26.774 23.9024 26.863 24.0288C26.957 24.1603 27.0049 24.3191 26.9993 24.4806C26.9937 24.6421 26.9349 24.7972 26.832 24.9218C26.0477 25.8852 25.0582 26.6615 23.9358 27.194C22.8134 27.7265 21.5863 28.0018 20.344 27.9998C15.734 27.9998 12 24.2858 12 19.7098C12 16.2658 14.114 13.3118 17.124 12.0598C17.2739 11.9964 17.4404 11.9834 17.5983 12.0227C17.7563 12.0621 17.8973 12.1516 18 12.2778Z" fill="white"></path>
<path d="M22.7948 15.148C22.8091 15.1047 22.8367 15.067 22.8737 15.0403C22.9107 15.0136 22.9552 14.9992 23.0008 14.9992C23.0464 14.9992 23.0909 15.0136 23.1278 15.0403C23.1648 15.067 23.1924 15.1047 23.2068 15.148L23.5938 16.31C23.7668 16.828 24.1728 17.234 24.6908 17.407L25.8528 17.794C25.8961 17.8083 25.9338 17.8359 25.9605 17.8729C25.9872 17.9099 26.0016 17.9543 26.0016 18C26.0016 18.0456 25.9872 18.09 25.9605 18.127C25.9338 18.164 25.8961 18.1916 25.8528 18.206L24.6908 18.593C24.4353 18.6781 24.2032 18.8215 24.0128 19.0119C23.8224 19.2024 23.6789 19.4345 23.5938 19.69L23.2068 20.852C23.1924 20.8953 23.1648 20.933 23.1278 20.9597C23.0909 20.9864 23.0464 21.0008 23.0008 21.0008C22.9552 21.0008 22.9107 20.9864 22.8737 20.9597C22.8367 20.933 22.8091 20.8953 22.7948 20.852L22.4078 19.69C22.3227 19.4345 22.1792 19.2024 21.9888 19.0119C21.7984 18.8215 21.5663 18.6781 21.3108 18.593L20.1488 18.206C20.1055 18.1916 20.0678 18.164 20.0411 18.127C20.0144 18.09 20 18.0456 20 18C20 17.9543 20.0144 17.9099 20.0411 17.8729C20.0678 17.8359 20.1055 17.8083 20.1488 17.794L21.3108 17.407C21.5663 17.3219 21.7984 17.1784 21.9888 16.988C22.1792 16.7976 22.3227 16.5654 22.4078 16.31L22.7948 15.148ZM25.8638 12.099C25.8737 12.0705 25.8922 12.0458 25.9167 12.0283C25.9413 12.0109 25.9707 12.0015 26.0008 12.0015C26.0309 12.0015 26.0603 12.0109 26.0849 12.0283C26.1094 12.0458 26.1279 12.0705 26.1378 12.099L26.3958 12.873C26.5108 13.219 26.7818 13.49 27.1278 13.605L27.9018 13.863C27.9303 13.8728 27.955 13.8913 27.9724 13.9159C27.9899 13.9404 27.9993 13.9698 27.9993 14C27.9993 14.0301 27.9899 14.0595 27.9724 14.084C27.955 14.1086 27.9303 14.1271 27.9018 14.137L27.1278 14.395C26.9573 14.4517 26.8023 14.5474 26.6753 14.6745C26.5482 14.8015 26.4525 14.9565 26.3958 15.127L26.1378 15.901C26.1279 15.9294 26.1094 15.9541 26.0849 15.9716C26.0603 15.9891 26.0309 15.9985 26.0008 15.9985C25.9707 15.9985 25.9413 15.9891 25.9167 15.9716C25.8922 15.9541 25.8737 15.9294 25.8638 15.901L25.6058 15.127C25.5491 14.9565 25.4534 14.8015 25.3263 14.6745C25.1992 14.5474 25.0443 14.4517 24.8738 14.395L24.0998 14.137C24.0713 14.1271 24.0466 14.1086 24.0291 14.084C24.0117 14.0595 24.0023 14.0301 24.0023 14C24.0023 13.9698 24.0117 13.9404 24.0291 13.9159C24.0466 13.8913 24.0713 13.8728 24.0998 13.863L24.8738 13.605C25.2198 13.49 25.4908 13.219 25.6058 12.873L25.8638 12.1V12.099Z" fill="white"></path>
</g>
<defs>
<clipPath id="clip0_1054_499">
<rect width="16" height="16" fill="white" transform="translate(12 12)"></rect>
</clipPath>
</defs>
</svg>
