<svg width="50" height="50" viewBox="0 0 50 50" fill="none" xmlns="http://www.w3.org/2000/svg">
<path d="M18.1085 35.9824H22.515L24.5462 33.9669C24.7782 33.7328 24.9302 33.4315 24.9808 33.1061C25.0314 32.7807 24.9777 32.4476 24.8273 32.1543L15.6246 13.748V29.732H12.4996V13.748L3.29697 32.1543C3.14665 32.4476 3.09293 32.7807 3.1435 33.1061C3.19408 33.4315 3.34614 33.7328 3.57807 33.9669L5.60932 35.9824H18.1085Z" fill="#907F53"></path>
<path d="M4.6875 40.6699C4.6875 41.0843 4.85213 41.4819 5.14509 41.7748C5.43805 42.0678 5.83566 42.2324 6.25 42.2324H7.8125V48.4824H20.3125V42.2324H21.875C22.2893 42.2324 22.6869 42.0678 22.9799 41.7748C23.2729 41.4819 23.4375 41.0843 23.4375 40.6699V39.1074H4.6875V40.6699Z" fill="#907F53"></path>
<path d="M9.375 3.16992C9.375 2.75558 9.21037 2.35798 8.91741 2.06501C8.62445 1.77205 8.22684 1.60742 7.8125 1.60742H1.5625C1.14816 1.60742 0.750554 1.77205 0.457589 2.06501C0.164625 2.35798 0 2.75558 0 3.16992V9.41992C0 9.83426 0.164625 10.2319 0.457589 10.5248C0.750554 10.8178 1.14816 10.9824 1.5625 10.9824H7.8125C8.22684 10.9824 8.62445 10.8178 8.91741 10.5248C9.21037 10.2319 9.375 9.83426 9.375 9.41992V3.16992Z" fill="#907F53"></path>
<path d="M12.5 4.73242H17.1875V7.85742H12.5V4.73242Z" fill="#907F53"></path>
<path d="M48.4375 1.60742H42.1875C41.7732 1.60742 41.3756 1.77205 41.0826 2.06501C40.7896 2.35798 40.625 2.75558 40.625 3.16992V9.41992C40.625 9.83426 40.7896 10.2319 41.0826 10.5248C41.3756 10.8178 41.7732 10.9824 42.1875 10.9824H48.4375C48.8518 10.9824 49.2494 10.8178 49.5424 10.5248C49.8354 10.2319 50 9.83426 50 9.41992V3.16992C50 2.75558 49.8354 2.35798 49.5424 2.06501C49.2494 1.77205 48.8518 1.60742 48.4375 1.60742Z" fill="#907F53"></path>
<path d="M29.6875 4.73242V3.16992C29.6875 2.75558 29.5229 2.35798 29.2299 2.06501C28.9369 1.77205 28.5393 1.60742 28.125 1.60742H21.875C21.4607 1.60742 21.0631 1.77205 20.7701 2.06501C20.4771 2.35798 20.3125 2.75558 20.3125 3.16992V9.41992C20.3125 9.83426 20.4771 10.2319 20.7701 10.5248C21.0631 10.8178 21.4607 10.9824 21.875 10.9824H28.125C28.5393 10.9824 28.9369 10.8178 29.2299 10.5248C29.5229 10.2319 29.6875 9.83426 29.6875 9.41992V4.73242Z" fill="#907F53"></path>
<path d="M42.1875 26.6074H40.625C40.2107 26.6074 39.8131 26.772 39.5201 27.065C39.2271 27.358 39.0625 27.7556 39.0625 28.1699V34.4199C39.0625 34.8343 39.2271 35.2319 39.5201 35.5248C39.8131 35.8178 40.2107 35.9824 40.625 35.9824H46.875C47.2893 35.9824 47.6869 35.8178 47.9799 35.5248C48.2729 35.2319 48.4375 34.8343 48.4375 34.4199V28.1699C48.4375 27.7556 48.2729 27.358 47.9799 27.065C47.6869 26.772 47.2893 26.6074 46.875 26.6074H42.1875Z" fill="#907F53"></path>
<path d="M32.8125 4.73242V9.41992C36.5158 11.2482 40.625 15.1545 41.8589 23.4824H44.9839C43.9369 15.0606 40.0621 10.4039 36.1244 7.85742H37.4996V4.73242H32.8125Z" fill="#907F53"></path>
</svg>
