<svg width="50" height="50" viewBox="0 0 50 50" fill="none" xmlns="http://www.w3.org/2000/svg">
<g clip-path="url('#clip0_510_11445')">
<path d="M43.9813 19.3985V43.9397C43.9796 45.4492 43.3792 46.897 42.3115 47.9641C41.2443 49.0317 39.7966 49.6321 38.2871 49.6338H6.02031C4.51077 49.6321 3.06305 49.0318 1.99591 47.9641C0.928255 46.8969 0.327907 45.4491 0.326172 43.9397V11.6729C0.327867 10.1633 0.928211 8.71561 1.99591 7.64847C3.06314 6.58082 4.51088 5.98047 6.02031 5.97873H30.5615L19.7282 16.812H19.7287C18.9321 17.6056 18.3907 18.6181 18.172 19.7209L16.8298 26.4272C16.4947 28.1003 16.9273 29.8357 18.0089 31.1554C19.0906 32.4752 20.7064 33.2408 22.4129 33.2411C22.7879 33.2415 23.162 33.2042 23.5297 33.1301L30.2378 31.7888C31.3415 31.5697 32.3549 31.0274 33.1488 30.231L43.9813 19.3985ZM22.785 29.4081L29.495 28.0664H29.4946C29.8619 27.9927 30.1992 27.8122 30.464 27.5474L47.9119 10.1005C48.98 9.03286 49.5804 7.58479 49.5804 6.07437C49.5804 4.56396 48.9809 3.11591 47.9128 2.0478C46.8286 1.01192 45.3864 0.433594 43.8867 0.433594C42.3869 0.433594 40.9447 1.0119 39.8601 2.0478L22.4121 19.4957C22.1473 19.7605 21.9669 20.0978 21.8931 20.4651L20.5514 27.1752V27.1748C20.4264 27.7976 20.6209 28.4411 21.0695 28.8902C21.5186 29.3388 22.1621 29.5333 22.7849 29.4083L22.785 29.4081Z" fill="#907F53"></path>
</g>
<defs>
<clipPath id="clip0_510_11445">
<rect width="50" height="50" fill="white"></rect>
</clipPath>
</defs>
</svg>
