<svg width="70" height="70" viewBox="0 0 70 70" fill="none" xmlns="http://www.w3.org/2000/svg">
<path d="M43.5123 51.5517C45.314 51.5601 47.0493 50.8741 48.358 49.6361C49.6664 48.3977 50.4473 46.7031 50.5386 44.9038V44.808L57.3543 37.1519C58.0465 36.3496 59.0213 35.8444 60.0759 35.7415C61.1306 35.6389 62.1845 35.9461 63.0186 36.5998C63.8527 37.2896 64.3726 38.2873 64.4609 39.3663C64.5488 40.4448 64.1976 41.5137 63.4865 42.3298L49.8783 57.9298V57.9294C48.0635 60.0091 45.4382 61.2015 42.6784 61.1994H22.2238L18.6718 64.7514L6 52.3979L15.0779 43.3979C16.9215 41.5655 19.2435 40.289 21.7785 39.7152C24.3135 39.141 26.9591 39.2925 29.412 40.1518L31.4042 40.8536H43.6742C44.7201 40.8532 45.7216 41.2768 46.4499 42.0276C47.1781 42.7784 47.5707 43.7921 47.5384 44.8376C47.4723 45.8551 47.0174 46.8085 46.2678 47.4999C45.5187 48.1909 44.5318 48.5676 43.5122 48.5517H36.1503C35.3221 48.5517 34.6503 49.2234 34.6503 50.0517C34.6503 50.8804 35.3221 51.5517 36.1503 51.5517L43.5123 51.5517ZM36.0843 22.8482C37.0745 23.4094 38.1079 23.8907 39.1743 24.2879C39.6305 24.4679 40.0863 24.6537 40.5362 24.8521H40.5366C41.0736 25.0815 41.5766 25.3845 42.0303 25.7519C42.3848 25.9947 42.6359 26.3601 42.7355 26.7777C42.8347 27.195 42.7753 27.6349 42.5685 28.0107C42.3618 28.387 42.0223 28.6724 41.6164 28.8122C40.8023 29.1546 39.9109 29.2705 39.0366 29.1483C37.593 28.9901 36.1902 28.5712 34.8965 27.912C34.6261 27.745 34.3193 27.6462 34.0025 27.624C33.2826 27.624 33.0604 28.3502 32.9344 28.7398C32.7005 29.4898 32.4904 30.2457 32.2865 31.0019C31.9504 32.2378 32.1605 32.6999 33.3186 33.264H33.3182C34.5909 33.842 35.941 34.23 37.3264 34.4162C37.5466 34.4405 37.7633 34.4866 37.9743 34.5539C38.0199 34.785 38.0379 35.0206 38.0283 35.2562V36.7382C38.004 37.1208 38.1438 37.4954 38.4133 37.7682C38.6824 38.0407 39.0558 38.1855 39.4383 38.1662H41.6586C42.0324 38.1868 42.3973 38.0436 42.6576 37.7741C42.918 37.5046 43.0481 37.1354 43.0142 36.7621V36.0899V34.7159C43.0142 34.2597 43.1222 34.1158 43.6144 33.9781C45.2044 33.5604 46.6219 32.6513 47.6645 31.3803C49.0264 29.7371 49.5851 27.573 49.1884 25.4762C48.7422 23.2413 47.3239 21.3211 45.3183 20.2383C44.1904 19.6427 43.0281 19.1141 41.8386 18.6542L41.3824 18.4684V18.4679C40.6856 18.1888 40.0315 17.8129 39.4383 17.3521C39.021 17.05 38.7934 16.5511 38.8386 16.0379C38.9361 15.5139 39.3031 15.0803 39.8045 14.8983C40.1636 14.7555 40.5461 14.6802 40.9324 14.676C42.5191 14.5798 44.104 14.8941 45.5345 15.588C47.0106 16.302 47.3346 15.2281 47.4547 14.7719C47.6527 14.1717 47.8268 13.572 48.0009 12.9421L48.2047 12.2222H48.2043C48.3299 11.8803 48.3115 11.5019 48.1533 11.1738C47.995 10.8461 47.71 10.5962 47.3643 10.482C46.3477 10.0337 45.2768 9.72066 44.1785 9.552C43.1887 9.39589 43.1887 9.39589 43.1887 8.39979C43.1887 6.30589 43.0268 6 40.9806 6H39.8765C38.6766 6.03599 38.3526 6.39006 38.3225 7.56611V8.38224V8.82043C38.3225 9.70227 38.3225 9.70227 37.4465 10.0203C34.2544 11.1784 32.5384 13.3622 32.3463 16.5062C32.1722 19.1521 33.4023 21.2402 36.0842 22.8481L36.0843 22.8482Z" fill="#907F53"></path>
</svg>
