<svg width="25" height="25" viewBox="0 0 25 25" fill="none" xmlns="http://www.w3.org/2000/svg">
<path d="M12.5 15.625C14.2259 15.625 15.625 14.2259 15.625 12.5C15.625 10.7741 14.2259 9.375 12.5 9.375C10.7741 9.375 9.375 10.7741 9.375 12.5C9.375 14.2259 10.7741 15.625 12.5 15.625Z" fill="white"></path>
<path d="M24.1715 12.2344C23.2527 9.85754 21.6575 7.80204 19.5831 6.32194C17.5087 4.84184 15.0461 4.00201 12.4997 3.90625C9.9532 4.00201 7.4906 4.84184 5.41623 6.32194C3.34187 7.80204 1.74667 9.85754 0.827793 12.2344C0.765736 12.406 0.765736 12.594 0.827793 12.7656C1.74667 15.1425 3.34187 17.198 5.41623 18.6781C7.4906 20.1582 9.9532 20.998 12.4997 21.0938C15.0461 20.998 17.5087 20.1582 19.5831 18.6781C21.6575 17.198 23.2527 15.1425 24.1715 12.7656C24.2336 12.594 24.2336 12.406 24.1715 12.2344ZM12.4997 17.5781C11.4953 17.5781 10.5135 17.2803 9.67841 16.7223C8.84332 16.1643 8.19244 15.3712 7.80809 14.4433C7.42374 13.5154 7.32318 12.4944 7.51912 11.5093C7.71506 10.5242 8.1987 9.61941 8.90889 8.90922C9.61908 8.19903 10.5239 7.71539 11.509 7.51945C12.494 7.32351 13.5151 7.42407 14.443 7.80842C15.3709 8.19278 16.164 8.84365 16.722 9.67875C17.28 10.5138 17.5778 11.4956 17.5778 12.5C17.5757 13.8462 17.04 15.1366 16.0882 16.0885C15.1363 17.0404 13.8458 17.5761 12.4997 17.5781Z" fill="white"></path>
</svg>
