<svg width="25" height="25" viewBox="0 0 25 25" fill="none" xmlns="http://www.w3.org/2000/svg">
<path d="M3 21.25C3 21.6821 3.34912 22.0312 3.78125 22.0312H21.75C22.1821 22.0312 22.5312 21.6821 22.5312 21.25V10.9961H3V21.25ZM21.75 4.25781H17.6484V2.69531C17.6484 2.58789 17.5605 2.5 17.4531 2.5H16.0859C15.9785 2.5 15.8906 2.58789 15.8906 2.69531V4.25781H9.64062V2.69531C9.64062 2.58789 9.55273 2.5 9.44531 2.5H8.07812C7.9707 2.5 7.88281 2.58789 7.88281 2.69531V4.25781H3.78125C3.34912 4.25781 3 4.60693 3 5.03906V9.33594H22.5312V5.03906C22.5312 4.60693 22.1821 4.25781 21.75 4.25781Z" fill="white"></path>
</svg>
