<svg width="25" height="25" viewBox="0 0 25 25" fill="none" xmlns="http://www.w3.org/2000/svg">
<path d="M12.9375 1.5C6.89746 1.5 2 6.39746 2 12.4375C2 18.4775 6.89746 23.375 12.9375 23.375C18.9775 23.375 23.875 18.4775 23.875 12.4375C23.875 6.39746 18.9775 1.5 12.9375 1.5ZM17.2466 15.7993L16.5483 16.7515C16.5332 16.7722 16.514 16.7897 16.492 16.803C16.4701 16.8164 16.4457 16.8252 16.4202 16.8291C16.3948 16.8329 16.3689 16.8317 16.344 16.8255C16.319 16.8193 16.2956 16.8083 16.2749 16.793L12.2368 13.8486C12.2117 13.8306 12.1912 13.8067 12.1772 13.7791C12.1632 13.7515 12.156 13.7209 12.1562 13.6899V6.96875C12.1562 6.86133 12.2441 6.77344 12.3516 6.77344H13.5259C13.6333 6.77344 13.7212 6.86133 13.7212 6.96875V13.0112L17.2026 15.5283C17.2905 15.5894 17.3101 15.7114 17.2466 15.7993Z" fill="white"></path>
</svg>
