<svg width="20" height="20" viewBox="0 0 20 20" fill="none" xmlns="http://www.w3.org/2000/svg">
<g clip-path="url('#clip0_2304_183')">
<path d="M9.99877 6.74487C8.20678 6.74487 6.74438 8.20727 6.74438 9.99926C6.74438 11.7913 8.20678 13.2537 9.99877 13.2537C11.7908 13.2537 13.2532 11.7913 13.2532 9.99926C13.2532 8.20727 11.7908 6.74487 9.99877 6.74487ZM19.7595 9.99926C19.7595 8.6516 19.7717 7.31616 19.696 5.97094C19.6204 4.40844 19.2639 3.02172 18.1213 1.87914C16.9763 0.734124 15.592 0.380121 14.0295 0.304437C12.6819 0.228753 11.3464 0.240961 10.0012 0.240961C8.65356 0.240961 7.31811 0.228753 5.97289 0.304437C4.41039 0.380121 3.02368 0.736566 1.8811 1.87914C0.736078 3.02416 0.382074 4.40844 0.30639 5.97094C0.230707 7.3186 0.242914 8.65405 0.242914 9.99926C0.242914 11.3445 0.230707 12.6824 0.30639 14.0276C0.382074 15.5901 0.738519 16.9768 1.8811 18.1194C3.02612 19.2644 4.41039 19.6184 5.97289 19.6941C7.32055 19.7698 8.656 19.7576 10.0012 19.7576C11.3489 19.7576 12.6843 19.7698 14.0295 19.6941C15.592 19.6184 16.9788 19.262 18.1213 18.1194C19.2664 16.9744 19.6204 15.5901 19.696 14.0276C19.7742 12.6824 19.7595 11.3469 19.7595 9.99926ZM9.99877 15.0066C7.22778 15.0066 4.99145 12.7703 4.99145 9.99926C4.99145 7.22826 7.22778 4.99194 9.99877 4.99194C12.7698 4.99194 15.0061 7.22826 15.0061 9.99926C15.0061 12.7703 12.7698 15.0066 9.99877 15.0066ZM15.2112 5.95629C14.5642 5.95629 14.0417 5.43383 14.0417 4.78686C14.0417 4.13989 14.5642 3.61743 15.2112 3.61743C15.8581 3.61743 16.3806 4.13989 16.3806 4.78686C16.3808 4.94049 16.3507 5.09264 16.292 5.23461C16.2333 5.37658 16.1472 5.50557 16.0385 5.6142C15.9299 5.72283 15.8009 5.80897 15.6589 5.86767C15.517 5.92637 15.3648 5.95649 15.2112 5.95629Z" fill="#F15A25"></path>
</g>
<defs>
<clipPath id="clip0_2304_183">
<rect width="20" height="20" fill="white"></rect>
</clipPath>
</defs>
</svg>
