<svg width="40" height="40" viewBox="0 0 40 40" fill="none" xmlns="http://www.w3.org/2000/svg">
<rect width="40" height="40" rx="20" fill="white"></rect>
<g clip-path="url('#clip0_1054_9278')">
<path fill-rule="evenodd" clip-rule="evenodd" d="M20 12C20.2652 12 20.5196 12.1054 20.7071 12.2929C20.8946 12.4804 21 12.7348 21 13V14C21 14.2652 20.8946 14.5196 20.7071 14.7071C20.5196 14.8946 20.2652 15 20 15C19.7348 15 19.4804 14.8946 19.2929 14.7071C19.1054 14.5196 19 14.2652 19 14V13C19 12.7348 19.1054 12.4804 19.2929 12.2929C19.4804 12.1054 19.7348 12 20 12ZM24 20C24 21.0609 23.5786 22.0783 22.8284 22.8284C22.0783 23.5786 21.0609 24 20 24C18.9391 24 17.9217 23.5786 17.1716 22.8284C16.4214 22.0783 16 21.0609 16 20C16 18.9391 16.4214 17.9217 17.1716 17.1716C17.9217 16.4214 18.9391 16 20 16C21.0609 16 22.0783 16.4214 22.8284 17.1716C23.5786 17.9217 24 18.9391 24 20ZM23.536 24.95L24.243 25.657C24.4316 25.8392 24.6842 25.94 24.9464 25.9377C25.2086 25.9354 25.4594 25.8302 25.6448 25.6448C25.8302 25.4594 25.9354 25.2086 25.9377 24.9464C25.94 24.6842 25.8392 24.4316 25.657 24.243L24.95 23.536C24.7614 23.3538 24.5088 23.253 24.2466 23.2553C23.9844 23.2576 23.7336 23.3628 23.5482 23.5482C23.3628 23.7336 23.2576 23.9844 23.2553 24.2466C23.253 24.5088 23.3538 24.7614 23.536 24.95ZM25.656 14.343C25.8435 14.5305 25.9488 14.7848 25.9488 15.05C25.9488 15.3152 25.8435 15.5695 25.656 15.757L24.95 16.464C24.8578 16.5595 24.7474 16.6357 24.6254 16.6881C24.5034 16.7405 24.3722 16.7681 24.2394 16.7693C24.1066 16.7704 23.9749 16.7451 23.852 16.6948C23.7291 16.6445 23.6175 16.5703 23.5236 16.4764C23.4297 16.3825 23.3555 16.2709 23.3052 16.148C23.2549 16.0251 23.2296 15.8934 23.2307 15.7606C23.2319 15.6278 23.2595 15.4966 23.3119 15.3746C23.3643 15.2526 23.4405 15.1422 23.536 15.05L24.243 14.343C24.4305 14.1555 24.6848 14.0502 24.95 14.0502C25.2152 14.0502 25.4695 14.1555 25.657 14.343H25.656ZM27 21C27.2652 21 27.5196 20.8946 27.7071 20.7071C27.8946 20.5196 28 20.2652 28 20C28 19.7348 27.8946 19.4804 27.7071 19.2929C27.5196 19.1054 27.2652 19 27 19H26C25.7348 19 25.4804 19.1054 25.2929 19.2929C25.1054 19.4804 25 19.7348 25 20C25 20.2652 25.1054 20.5196 25.2929 20.7071C25.4804 20.8946 25.7348 21 26 21H27ZM20 25C20.2652 25 20.5196 25.1054 20.7071 25.2929C20.8946 25.4804 21 25.7348 21 26V27C21 27.2652 20.8946 27.5196 20.7071 27.7071C20.5196 27.8946 20.2652 28 20 28C19.7348 28 19.4804 27.8946 19.2929 27.7071C19.1054 27.5196 19 27.2652 19 27V26C19 25.7348 19.1054 25.4804 19.2929 25.2929C19.4804 25.1054 19.7348 25 20 25ZM15.05 16.464C15.1428 16.5569 15.2531 16.6306 15.3744 16.6809C15.4957 16.7312 15.6258 16.7572 15.7571 16.7572C15.8885 16.7572 16.0186 16.7314 16.1399 16.6812C16.2613 16.631 16.3716 16.5573 16.4645 16.4645C16.5574 16.3717 16.6311 16.2614 16.6814 16.1401C16.7317 16.0188 16.7577 15.8887 16.7577 15.7574C16.7577 15.626 16.7319 15.4959 16.6817 15.3746C16.6315 15.2532 16.5578 15.1429 16.465 15.05L15.757 14.343C15.5684 14.1608 15.3158 14.06 15.0536 14.0623C14.7914 14.0646 14.5406 14.1698 14.3552 14.3552C14.1698 14.5406 14.0646 14.7914 14.0623 15.0536C14.06 15.3158 14.1608 15.5684 14.343 15.757L15.05 16.464ZM16.464 24.95L15.757 25.657C15.5684 25.8392 15.3158 25.94 15.0536 25.9377C14.7914 25.9354 14.5406 25.8302 14.3552 25.6448C14.1698 25.4594 14.0646 25.2086 14.0623 24.9464C14.06 24.6842 14.1608 24.4316 14.343 24.243L15.05 23.536C15.2386 23.3538 15.4912 23.253 15.7534 23.2553C16.0156 23.2576 16.2664 23.3628 16.4518 23.5482C16.6372 23.7336 16.7424 23.9844 16.7447 24.2466C16.747 24.5088 16.6462 24.7614 16.464 24.95ZM14 21C14.2652 21 14.5196 20.8946 14.7071 20.7071C14.8946 20.5196 15 20.2652 15 20C15 19.7348 14.8946 19.4804 14.7071 19.2929C14.5196 19.1054 14.2652 19 14 19H13C12.7348 19 12.4804 19.1054 12.2929 19.2929C12.1054 19.4804 12 19.7348 12 20C12 20.2652 12.1054 20.5196 12.2929 20.7071C12.4804 20.8946 12.7348 21 13 21H14Z" fill="#001322"></path>
</g>
<defs>
<clipPath id="clip0_1054_9278">
<rect width="16" height="16" fill="white" transform="translate(12 12)"></rect>
</clipPath>
</defs>
</svg>
