<svg width="15" height="15" viewBox="0 0 15 15" fill="none" xmlns="http://www.w3.org/2000/svg">
  <path fill-rule="evenodd" clip-rule="evenodd" d="M5.89313 5.60563H8.21437V6.76188C8.54875 6.09688 9.40625 5.49938 10.6944 5.49938C13.1637 5.49938 13.75 6.82313 13.75 9.25187V13.75H11.25V9.805C11.25 8.42188 10.9156 7.64188 10.0644 7.64188C8.88375 7.64188 8.39313 8.4825 8.39313 9.80437V13.75H5.89313V5.60563ZM1.60625 13.6438H4.10625V5.49938H1.60625V13.6438ZM4.46438 2.84375C4.46447 3.0533 4.42291 3.26077 4.34212 3.45412C4.26132 3.64746 4.14291 3.82282 3.99375 3.97C3.6915 4.27039 3.28238 4.43853 2.85625 4.4375C2.43087 4.43721 2.02269 4.2695 1.72 3.97063C1.57138 3.82295 1.45337 3.64739 1.37271 3.45402C1.29206 3.26065 1.25036 3.05327 1.25 2.84375C1.25 2.42063 1.41875 2.01563 1.72063 1.71688C2.02305 1.4176 2.4314 1.24981 2.85688 1.25C3.28313 1.25 3.69187 1.41813 3.99375 1.71688C4.295 2.01563 4.46438 2.42063 4.46438 2.84375Z" fill="#7C7C7C"></path>
</svg>