<svg width="70" height="70" viewBox="0 0 70 70" fill="none" xmlns="http://www.w3.org/2000/svg">
<path d="M48.2995 20.4531L55.5182 21C56.1745 21 56.8307 20.8906 57.3776 20.4531L57.487 20.3438C58.0338 19.9062 58.362 19.1406 58.362 18.4844L58.6901 11.2656C58.6901 10.3906 58.0338 9.625 57.1588 9.51563C56.7213 9.51563 56.2838 9.625 55.9557 9.95313C55.6276 10.2813 55.4088 10.6094 55.4088 11.0469L55.1901 15.4219L54.9713 15.2031C49.5026 9.95312 42.2838 7 34.7363 7C25.6582 7 17.1263 11.1562 11.5488 18.375C11.002 19.0312 11.1113 20.125 11.877 20.6719C12.2051 20.8906 12.6426 21 13.0801 21C13.5176 20.8906 13.9551 20.6719 14.1738 20.3438C19.0957 13.8906 26.6426 10.2813 34.7363 10.2813C41.4082 10.2813 47.6426 12.7969 52.4551 17.2812L52.7832 17.5L48.4082 17.1719H48.2988C47.4238 17.1719 46.6582 17.8281 46.6582 18.7031C46.6582 19.1406 46.7676 19.5781 47.0957 19.9062C47.4238 20.2344 47.8613 20.4531 48.2988 20.4531H48.2995Z" fill="#907F53"></path>
<path d="M3.78184 48.3438C4.32871 49.2188 5.64121 51.1875 5.75059 51.4062C5.96934 51.8438 6.07871 52.6094 6.18809 53.2656V56.2188V57.4219C6.18809 58.2969 6.84434 59.0625 7.71934 59.1719C8.15684 59.2812 8.59434 59.2812 9.25059 59.2812H9.68809L9.90684 59.6094C10.5631 60.7031 11.7662 61.3594 13.1881 61.3594C13.9537 61.3594 14.61 61.1406 15.1568 60.9219C15.7037 60.5938 16.1412 60.2656 16.36 59.7188L16.5787 59.3906H17.0162C17.4537 59.3906 17.8912 59.3906 18.2193 59.2812C19.4225 59.1719 20.1881 58.2969 20.0787 57.0938C20.0787 56.875 20.0787 56.6562 19.9693 56.4375V56.3281V55.7812V55.0156V54.4688V53.1562C20.0787 52.3906 20.1881 51.8438 20.4068 51.5156C20.6256 51.1875 22.5943 48.125 22.7037 48.0156C26.2037 42.3281 23.5787 36.5312 23.4693 36.3125V36.2031C20.5162 30.625 15.2662 29.9688 13.5162 29.9688H12.86C11.3287 29.9688 5.85996 30.4062 2.79746 36.3125C2.68809 36.5312 0.0630858 42.3281 3.56309 48.0156L3.78184 48.3438ZM4.76621 37.2969C6.40684 34.125 9.57871 32.2656 13.1881 32.2656C16.7975 32.2656 19.86 34.125 21.5006 37.0781C21.5006 37.1875 23.6881 42 20.8443 46.7031L19.5318 48.6719C19.0943 49.3281 18.6568 49.9844 18.5475 50.0938C18.4381 50.2031 18.3287 50.4219 18.3287 50.5312C18.0006 51.2969 17.235 51.8438 16.36 51.8438H9.68809C8.92246 51.8438 8.26621 51.4062 7.93809 50.6406C7.93809 50.5312 7.82871 50.3125 7.71934 50.2031C7.50059 49.875 5.64121 46.9219 5.53184 46.8125C2.79746 42.3281 4.54746 37.7344 4.76621 37.2969Z" fill="#907F53"></path>
<path d="M10.3437 47.9062C10.4531 48.2344 10.7812 48.5625 11.1094 48.5625H11.3281C11.5469 48.5625 11.6562 48.3438 11.7656 48.2344C11.875 48.125 11.875 47.9062 11.7656 47.5781C11.4375 46.5938 11.2187 45.7188 10.8906 44.7344L10.6719 43.8594C10.5625 43.3125 10.3437 42.875 10.2344 42.3281L10.0156 41.5625L10.125 41.4531C10.7812 41.2344 11.4375 41.0156 12.0937 41.0156H12.3125V41.3438V41.6719V42.5469C12.3125 42.9844 12.6406 43.3125 13.0781 43.3125C13.5156 43.3125 13.8437 42.9844 13.8437 42.5469V42.2188V42.1094V40.9062H14.0625C14.8281 41.0156 15.4844 41.125 16.0312 41.3438L16.1406 41.4531V41.6719V41.7812L15.5937 43.6406C15.1562 44.9531 14.8281 46.2656 14.3906 47.5781C14.2812 47.7969 14.3906 48.125 14.5 48.2344C14.6094 48.4531 14.9375 48.5625 15.1562 48.4531C15.4844 48.4531 15.7031 48.2344 15.8125 47.9062C15.9219 47.5781 16.0312 47.1406 16.1406 46.8125V46.7031C16.25 46.4844 16.25 46.2656 16.3594 46.0469L18.3281 39.1562C18.4375 38.6094 18.2187 38.3906 18.1094 38.1719C18 38.0625 17.8906 38.0625 17.6719 38.0625C17.3437 38.0625 17.125 38.2812 17.0156 38.6094L16.6875 39.5938L16.5781 40.0312L16.4687 39.9219C15.7031 39.5938 14.8281 39.4844 14.0625 39.375H13.9531V39.2656V38.8281V38.3906C13.9531 37.9531 13.625 37.625 13.1875 37.625C12.75 37.625 12.4219 37.9531 12.4219 38.3906V39.1562V39.2656H12.3125C11.875 39.2656 11.5469 39.375 11.2187 39.375C10.8906 39.4844 10.4531 39.5938 10.125 39.7031L9.6875 39.8125L9.46875 39.5938C9.35937 39.2656 9.25 39.0469 9.25 38.7188C9.14062 38.2812 8.8125 38.0625 8.48437 38.0625H8.26562C8.04687 38.1719 7.82812 38.2812 7.82812 38.3906C7.71875 38.6094 7.71875 38.8281 7.82812 39.0469C8.59375 42 9.46875 44.8438 10.3437 47.9062Z" fill="#907F53"></path>
<path d="M53.0006 30.1875C44.4694 30.1875 37.5781 37.0781 37.5781 45.61C37.5781 54.1419 44.4688 61.0325 53.0006 61.0325C61.5325 61.0325 68.4231 54.1419 68.4231 45.61C68.4231 37.0781 61.5325 30.1875 53.0006 30.1875ZM58.5788 50.3125C58.36 52.0625 57.2663 53.2656 55.4069 53.8125C55.0788 53.9219 54.86 53.9219 54.5319 54.0313L54.0944 54.1406V55.4531H52.3444V54.25L52.1256 54.1406C48.735 53.375 47.2038 51.625 47.5319 49H50.5944V49.3281V49.5469C50.7038 50.75 51.4694 51.5156 52.6725 51.625H53.3288C54.3131 51.625 54.9694 51.1875 55.1881 50.3125C55.5163 49.3281 55.1881 48.3438 54.4225 47.7969L53.11 47.1406L53.0006 47.0313C52.7819 46.9219 52.6725 46.8125 52.4538 46.8125C52.1256 46.7031 51.7975 46.4844 51.5788 46.375C50.9225 46.0469 50.1569 45.7188 49.5006 45.2813C48.2975 44.4063 47.6413 42.9844 47.7506 41.4531C47.86 39.9219 48.735 38.5 50.1569 37.8438C50.5944 37.625 51.0319 37.5156 51.5788 37.2969C51.7975 37.1875 51.9069 37.1875 52.1256 37.0781L52.3444 36.9688V35.6563H54.0944V37.0781L54.3131 37.1875C55.9538 37.5156 57.0475 38.2813 57.8131 39.4844C58.2506 40.25 58.4694 41.3438 58.36 42.2188H55.1881C55.1881 42.1094 55.1881 42 55.0788 41.8906C55.0788 41.6719 54.9694 41.3438 54.86 41.125C54.5319 40.25 53.8756 39.8125 52.8913 39.8125C51.9069 39.8125 51.2506 40.1406 51.0319 41.0156C50.7038 42 50.9225 42.9844 51.6881 43.5313C52.1256 43.8594 52.6725 44.0781 53.2194 44.2969C53.4381 44.4063 53.5475 44.5156 53.7663 44.5156C54.0944 44.625 54.3131 44.8438 54.6413 44.9531C55.1881 45.1719 55.8444 45.5 56.3913 45.8281C58.1413 46.7031 58.7975 48.2344 58.5788 50.3125Z" fill="#907F53"></path>
</svg>
