<svg width="70" height="70" viewBox="0 0 70 70" fill="none" xmlns="http://www.w3.org/2000/svg">
<path d="M35.5285 31.6557C29.3059 30.0384 27.3048 28.3662 27.3048 25.7621C27.3048 22.7741 30.0735 20.6908 34.7061 20.6908C38.5987 20.6908 40.545 22.1711 41.2577 24.5285C41.5866 25.625 42.4912 26.4474 43.6425 26.4474H44.4649C46.2741 26.4474 47.5625 24.6656 46.932 22.966C45.7807 19.7314 43.0943 17.045 38.818 16.0033V14.1118C38.818 11.8366 36.9814 10 34.7061 10C32.4309 10 30.5943 11.8366 30.5943 14.1118V15.9211C25.2763 17.0724 21 20.5263 21 25.8169C21 32.1491 26.2357 35.3015 33.8838 37.1382C40.7368 38.7829 42.1075 41.1952 42.1075 43.7445C42.1075 45.636 40.7643 48.6513 34.7061 48.6513C30.1831 48.6513 27.8531 47.034 26.9485 44.7314C26.5373 43.6623 25.6053 42.8947 24.4814 42.8947H23.7138C21.8772 42.8947 20.5888 44.7588 21.2741 46.4583C22.8366 50.2686 26.4825 52.5164 30.5943 53.3936V55.2303C30.5943 57.5055 32.4309 59.3421 34.7061 59.3421C36.9814 59.3421 38.818 57.5055 38.818 55.2303V53.4485C44.1634 52.4342 48.4123 49.3366 48.4123 43.7171C48.4123 35.932 41.7511 33.273 35.5285 31.6557Z" fill="#907F53"></path>
</svg>
