<svg width="24" height="24" viewBox="0 0 24 24" fill="none" xmlns="http://www.w3.org/2000/svg">
<path d="M13.4458 6.24003L16.8288 2.33503C17.2188 1.88503 17.9338 1.88703 18.3868 2.34103L21.1688 5.12803C21.9968 5.95703 22.2338 7.18803 21.7548 8.17503C18.8931 14.1 14.1147 18.8851 8.19377 21.755C7.20777 22.234 5.97777 21.997 5.14977 21.168L2.34177 18.355C1.88677 17.9 1.88577 17.181 2.33977 16.791L6.25977 13.426C6.66977 13.074 7.30677 13.12 7.71777 13.532L9.08177 14.898C9.1516 14.9712 9.24352 15.0195 9.34342 15.0354C9.44331 15.0513 9.54567 15.0339 9.63477 14.986C11.8643 13.7021 13.7138 11.8503 14.9948 9.61903C15.0427 9.52978 15.0601 9.42726 15.0442 9.32719C15.0283 9.22711 14.98 9.13502 14.9068 9.06503L13.5468 7.70403C13.1348 7.29003 13.0898 6.65003 13.4458 6.23903V6.24003Z" fill="white"></path>
</svg>
