<svg width="60" height="60" viewBox="0 0 60 60" fill="none" xmlns="http://www.w3.org/2000/svg">
<path d="M47.9203 41.7685C47.1734 41.7685 46.676 41.5196 46.1781 41.0217C45.1828 40.0264 45.1828 38.5326 46.1781 37.5373L53.8937 29.8217L46.4271 22.6039C45.4317 21.6086 45.4317 20.1149 46.4271 19.1195C47.4224 18.1242 48.9161 18.1242 49.9115 19.1195L59.1203 28.3283C59.6182 28.8262 59.8671 29.3236 59.8671 30.0705C59.8671 30.8173 59.6182 31.3147 59.1203 31.8126L49.6624 41.2705C49.165 41.5194 48.6671 41.7684 47.9203 41.7684V41.7685Z" fill="#907F53"></path>
<path d="M12.0797 41.7693C11.3328 41.7693 10.8354 41.5203 10.3376 41.0224L0.879694 31.5645C0.381774 31.0666 0.132812 30.5692 0.132812 29.8224C0.132812 29.0755 0.381774 28.5781 0.879694 28.0803L10.0885 18.8715C11.0838 17.8762 12.5776 17.8762 13.5729 18.8715C14.5682 19.8668 14.5682 21.3605 13.5729 22.3559L6.35516 29.5736L13.8218 37.5381C14.8171 38.5335 14.8171 40.0272 13.8218 41.0225C13.3239 41.5205 12.826 41.7694 12.0797 41.7694V41.7693Z" fill="#907F53"></path>
<path d="M29.9994 42.5155C28.5062 42.5155 27.5103 41.5202 27.5103 40.0264V28.5775C27.5103 27.0843 28.5056 26.0884 29.9994 26.0884C33.4838 26.0884 36.2218 23.3504 36.2218 19.866C36.2218 16.3816 33.4838 13.6436 29.9994 13.6436C26.515 13.6436 23.777 16.3816 23.777 19.866C23.777 21.3592 22.7817 22.3551 21.2879 22.3551C19.7947 22.3551 18.7988 21.3598 18.7988 19.866C18.7988 13.6436 23.7764 8.66602 29.9988 8.66602C36.2212 8.66602 41.1988 13.6436 41.1988 19.866C41.1988 25.0925 37.4655 29.5728 32.4879 30.8171L32.4884 40.0269C32.4884 41.5201 31.2436 42.5155 29.9993 42.5155H29.9994Z" fill="#907F53"></path>
<path d="M30.0008 51.2289C28.5076 51.2289 27.5117 50.2336 27.5117 48.7399V47.993C27.5117 46.4998 28.507 45.5039 30.0008 45.5039C31.494 45.5039 32.4899 46.4992 32.4899 47.993V48.7399C32.4899 49.9841 31.494 51.2289 30.0008 51.2289Z" fill="#907F53"></path>
</svg>
