<svg width="50" height="50" viewBox="0 0 50 50" fill="none" xmlns="http://www.w3.org/2000/svg">
<path d="M15.4231 36.0521L15.1302 36.0498L15.1031 36.0758C14.1745 36.9841 13.012 37.5732 11.7402 37.7781L11.4875 37.818L12.428 38.3648L10.7996 40.1843L11.9096 45.3186L10.6268 47.9108L9.37662 45.3005L10.5563 40.1809L8.95311 38.3397L9.42085 38.077L9.89905 37.8069L9.64794 37.7635C9.40729 37.7224 9.17129 37.6658 8.938 37.5942C7.94865 37.2992 7.04961 36.761 6.30903 36.0166L6.28191 35.9894L5.95794 35.9883C3.4875 35.9883 1.46191 37.9976 1.44564 40.4692L1.3941 47.9942L1.38867 48.7422L1.57275 48.7445L19.7593 48.8638L19.8503 48.8662L19.9069 40.5944C19.9143 39.3877 19.452 38.2519 18.606 37.3934C17.7593 36.5359 16.6292 36.06 15.4233 36.0522L15.4231 36.0521Z" fill="#907F53"></path>
<path d="M10.7343 26.0703C9.38035 26.0703 8.136 26.5613 7.17142 27.3771C6.95247 27.558 6.75095 27.7572 6.56533 27.9715C5.71742 28.938 5.20045 30.1994 5.19152 31.5759C5.18028 33.3555 6.01191 34.9469 7.31086 35.9704C7.96423 36.487 8.73577 36.8582 9.57981 37.0361C9.93982 37.1144 10.313 37.1566 10.6971 37.159H10.737C13.7721 37.159 16.2592 34.6885 16.2797 31.651C16.2887 30.1699 15.7233 28.7744 14.6823 27.7212C13.6411 26.6655 12.253 26.08 10.7718 26.0707L10.7343 26.0703Z" fill="#907F53"></path>
<path d="M43.2343 9.98266L42.9398 9.98033L42.9142 10.0059C41.9864 10.9158 40.8235 11.5033 39.5497 11.7087L39.2986 11.7505L40.2376 12.2966L38.6108 14.1156L39.7207 19.2483L38.4365 21.8413L37.1883 19.2325L38.3559 14.1579L38.3652 14.1141L36.7639 12.2729L37.7107 11.7397L37.4591 11.6939C36.1908 11.4723 35.0359 10.8677 34.1187 9.94742L34.0915 9.92029L33.7676 9.91797C33.6626 9.91797 33.5571 9.92184 33.451 9.93037C33.451 9.93037 33.4494 9.92882 33.4475 9.92882C33.4475 9.92882 33.4475 9.93037 33.4459 9.93037C31.1243 10.0943 29.2719 12.0358 29.256 14.4016L29.2305 18.2354L30.1439 17.6204C30.3349 17.4914 30.5643 17.422 30.8061 17.422C31.1813 17.422 31.5556 17.5844 31.8323 17.8657L33.0112 19.0787C33.4751 19.5515 33.5646 20.2793 33.2189 20.7726L32.4361 21.8782L32.4505 21.922C32.5249 22.1511 32.5849 22.3863 32.6303 22.6227L32.6431 22.6955L47.6619 22.7982L47.7162 14.5261C47.7324 12.0382 45.7216 10.0006 43.2344 9.98275L43.2343 9.98266Z" fill="#907F53"></path>
<path d="M33.552 7.95048C34.4429 9.79313 36.3286 11.0743 38.5104 11.0887H38.5479C41.5846 11.0887 44.0702 8.61932 44.0923 5.58272C44.0997 4.40544 43.7396 3.3099 43.115 2.40732C42.7201 1.83107 42.2178 1.33391 41.6373 0.943234C40.7638 0.35497 39.7144 0.00697421 38.584 0H38.5464C35.5094 0 33.0238 2.47123 33.0021 5.50823C33.0005 5.75896 33.0149 6.00504 33.0493 6.24647C33.1222 6.84907 33.297 7.42256 33.552 7.95044L33.552 7.95048Z" fill="#907F53"></path>
<path d="M4.73376 26.1604H6.85202L6.84814 26.0678C6.84078 25.8562 6.83768 25.645 6.83768 25.4322C6.83768 15.1029 15.2404 6.69911 25.5698 6.69911C26.4522 6.69911 27.3366 6.76072 28.2042 6.88473L27.5307 7.40595C27.3052 7.57879 27.1614 7.83223 27.125 8.11473C27.0889 8.39686 27.1634 8.67742 27.3377 8.90489C27.5416 9.1688 27.8512 9.31993 28.1856 9.31993C28.424 9.31993 28.6495 9.2432 28.8367 9.09788L30.7983 7.5823L30.8095 7.57455L31.5389 7.00993C31.7628 6.83709 31.8977 6.59334 31.9372 6.33486C31.9861 6.05313 31.919 5.75473 31.7318 5.51098L29.7559 2.95255L29.6446 2.80917C29.4408 2.54487 29.1335 2.39258 28.7987 2.39258C28.5603 2.39258 28.3348 2.47086 28.1453 2.61579C27.9198 2.79018 27.776 3.0413 27.7396 3.32535C27.7035 3.6094 27.7795 3.88997 27.9547 4.11473L28.4697 4.78321C28.1682 4.74097 27.8651 4.70648 27.5617 4.67781C27.5505 4.67548 27.5385 4.67548 27.5257 4.67432C26.8762 4.61425 26.2213 4.58325 25.5694 4.58325C20.0015 4.58325 14.7649 6.7522 10.8274 10.6895C6.88975 14.6271 4.7207 19.8638 4.7207 25.4316C4.7207 25.6459 4.72225 25.8594 4.73233 26.0718L4.73376 26.1604Z" fill="#907F53"></path>
<path d="M44.2999 25.4312C44.2999 35.1449 36.8687 43.1554 27.3901 44.0751C26.7895 44.1344 26.1822 44.1638 25.5672 44.1638C25.3851 44.1638 25.1995 44.1615 25.01 44.1561L25.7761 43.4333C25.9854 43.2388 26.104 42.9733 26.1129 42.6877C26.1202 42.4021 26.0183 42.1313 25.8218 41.9239C25.6219 41.7089 25.3378 41.5868 25.0429 41.5868C24.7701 41.5868 24.5101 41.6914 24.3116 41.8786L21.826 44.2181C21.3967 44.623 21.3765 45.3008 21.7803 45.7287L24.1202 48.2147C24.1915 48.2907 24.2752 48.3546 24.3639 48.4058C24.5255 48.5003 24.7096 48.5515 24.8991 48.5515C25.1719 48.5515 25.4319 48.4468 25.6323 48.2608C25.8396 48.0651 25.9578 47.7997 25.9671 47.5141C25.976 47.2273 25.8726 46.9576 25.6761 46.7491L25.547 46.6135L25.232 46.2775C25.3432 46.2786 25.456 46.2829 25.5668 46.2829C25.6412 46.2829 25.7164 46.2829 25.7885 46.2806C31.2762 46.224 36.4244 44.0604 40.3093 40.1739C44.2481 36.2363 46.4174 31.0016 46.4174 25.4329V25.3418H44.2996L44.3004 25.4317L44.2999 25.4312Z" fill="#907F53"></path>
<path d="M32.6177 20.3497C32.7596 20.1451 32.7014 19.8107 32.4833 19.589L31.3083 18.3807C31.1715 18.2408 30.982 18.1567 30.806 18.1567C30.7115 18.1567 30.622 18.1823 30.5526 18.2295L29.1586 19.1673C29.1424 19.1778 29.1257 19.1906 29.1075 19.2049C28.8986 19.1084 28.6723 19.029 28.4363 18.9616C28.1995 18.8961 27.9651 18.8465 27.7357 18.8194C27.7302 18.7973 27.7213 18.7756 27.7124 18.7539L27.0102 17.2278C26.9296 17.0534 26.7207 16.9395 26.4774 16.9395C26.4134 16.9395 26.3503 16.9488 26.2879 16.9635L24.654 17.3824C24.3518 17.4607 24.1278 17.7153 24.1444 17.9625L24.2549 19.6409C24.2572 19.6626 24.2611 19.6843 24.2642 19.7048C23.8763 19.985 23.531 20.3187 23.238 20.7031C23.2178 20.6992 23.1957 20.6953 23.1764 20.6938L21.5065 20.5411C21.2605 20.5194 20.9981 20.7395 20.9156 21.039L20.4591 22.662C20.373 22.9642 20.4823 23.2859 20.7047 23.3948L22.2091 24.1338C22.2273 24.1431 22.2436 24.15 22.2618 24.157C22.3095 24.636 22.4281 25.1068 22.6168 25.5571C22.604 25.5715 22.5912 25.5862 22.5792 25.6044L21.6092 26.9739C21.467 27.1778 21.5236 27.5111 21.7398 27.7335L22.9082 28.9301C23.0426 29.07 23.2283 29.1533 23.405 29.1533C23.5011 29.1533 23.5891 29.1281 23.6596 29.0805L25.055 28.1423C25.0678 28.1322 25.0806 28.1241 25.0926 28.1128C25.3147 28.2151 25.5499 28.3008 25.7933 28.369C26.0242 28.4352 26.2645 28.4829 26.5067 28.5135C26.5117 28.5286 26.5179 28.5453 26.5249 28.5592L27.2255 30.0861C27.3054 30.2605 27.515 30.3756 27.7568 30.3756C27.8208 30.3756 27.8839 30.3655 27.9448 30.3516L29.5677 29.9362C29.8676 29.8579 30.0901 29.6029 30.0738 29.358L29.9587 27.6707C29.9572 27.659 29.9572 27.6478 29.9552 27.635C30.3552 27.3471 30.7101 27.0034 31.0054 26.6104C31.0233 26.6139 31.0415 26.6158 31.0597 26.6182L32.7295 26.772C32.7423 26.7743 32.7551 26.7743 32.7656 26.7743C33.0023 26.7743 33.2387 26.5631 33.3189 26.281L33.7724 24.6669C33.8557 24.367 33.7483 24.0469 33.5247 23.9407L32.0188 23.2002C32.0044 23.1928 31.9878 23.1878 31.9727 23.1808H31.9711C31.9223 22.6987 31.8021 22.2248 31.6126 21.7702C31.6254 21.7558 31.6378 21.7392 31.6487 21.7237L32.6177 20.3497ZM29.3474 24.3606C29.0564 25.3938 28.1046 26.1161 27.0331 26.1161C26.8149 26.1161 26.5964 26.0851 26.3836 26.0266C25.1086 25.6666 24.3643 24.3366 24.7227 23.0608C25.0137 22.0257 25.9655 21.3015 27.0378 21.3015C27.256 21.3015 27.4745 21.3321 27.6865 21.3922C28.9626 21.751 29.7066 23.0809 29.3474 24.3606L29.3474 24.3606Z" fill="#907F53"></path>
<path d="M27.4927 22.3191C27.3671 22.2842 27.2392 22.2656 27.1125 22.2656C26.4898 22.2656 25.9371 22.6861 25.7674 23.2883C25.5585 24.0285 25.9914 24.8039 26.7335 25.0117C26.8575 25.0477 26.9846 25.0644 27.1125 25.0644C27.7364 25.0644 28.2897 24.6454 28.4587 24.0436C28.6683 23.3015 28.2332 22.5265 27.4926 22.3191L27.4927 22.3191Z" fill="#907F53"></path>
<path d="M21.7207 35.4776L22.1283 36.3678C22.1772 36.4771 22.3066 36.5468 22.4562 36.5468C22.4938 36.5468 22.5321 36.5433 22.5705 36.5317L23.5165 36.2918C23.6986 36.243 23.8346 36.0857 23.8242 35.933L23.7587 34.9541C23.7571 34.9487 23.7571 34.9452 23.7571 34.9401C23.985 34.7739 24.1865 34.5778 24.3578 34.355C24.3651 34.355 24.3721 34.355 24.3795 34.3573L25.3529 34.4461C25.3603 34.4484 25.3673 34.4484 25.3762 34.4484C25.5238 34.4484 25.6672 34.3213 25.7168 34.1469L25.9803 33.2064C26.0315 33.0219 25.9641 32.8274 25.8257 32.7603L24.9468 32.3298L24.9286 32.322C24.9015 32.0465 24.8321 31.7764 24.7248 31.516C24.7302 31.5106 24.7337 31.5032 24.7391 31.4966L25.3053 30.696C25.3932 30.57 25.358 30.3658 25.2254 30.2294L24.5395 29.526C24.4101 29.3927 24.1997 29.3505 24.0756 29.435L23.2642 29.9806C23.2553 29.9849 23.2479 29.9907 23.2409 29.9969C23.1208 29.9415 22.9937 29.8957 22.8588 29.8582C22.7243 29.8206 22.5899 29.7931 22.4589 29.776C22.4554 29.7659 22.4515 29.7566 22.4477 29.7477L22.038 28.8576C21.9892 28.7502 21.8598 28.6797 21.711 28.6797C21.6711 28.6797 21.6327 28.6851 21.5959 28.6936L20.6426 28.9374C20.4585 28.9839 20.3221 29.1401 20.331 29.2935L20.3965 30.2736C20.3965 30.2825 20.398 30.2906 20.4004 30.3007C20.1783 30.46 19.9818 30.6522 19.8144 30.87C19.8055 30.87 19.7962 30.8676 19.7873 30.8657L18.8138 30.7789C18.6627 30.7626 18.5011 30.8983 18.4499 31.0804L18.1837 32.0264C18.1314 32.212 18.1988 32.4085 18.3364 32.4759L19.2138 32.9076C19.2211 32.9111 19.2281 32.9153 19.2339 32.9165C19.263 33.1909 19.33 33.4594 19.4378 33.7156C19.4323 33.7233 19.4265 33.7307 19.4211 33.7384L18.8572 34.5375C18.7677 34.6627 18.803 34.8665 18.9355 35.0029L19.616 35.7016C19.7431 35.8315 19.9543 35.876 20.0783 35.7904L20.891 35.2424C20.8964 35.2401 20.9003 35.237 20.9061 35.2335C21.0316 35.2901 21.1661 35.3385 21.306 35.3792C21.4389 35.416 21.5753 35.4432 21.7133 35.4614C21.7156 35.4653 21.7172 35.4711 21.7207 35.4777V35.4776ZM21.6606 33.9749C20.9274 33.7687 20.5 33.0037 20.705 32.2705C20.8724 31.676 21.4203 31.2583 22.0349 31.2583C22.1605 31.2583 22.2884 31.2765 22.41 31.3118C23.1432 31.5179 23.5707 32.2841 23.3634 33.0184C23.1979 33.6117 22.6499 34.0283 22.033 34.0283C21.9082 34.0283 21.7827 34.0094 21.6606 33.9749H21.6606Z" fill="#907F53"></path>
<path d="M22.3091 31.813C22.2363 31.7937 22.1595 31.7812 22.0832 31.7812C21.7127 31.7812 21.381 32.0328 21.281 32.3912C21.157 32.8341 21.4159 33.2949 21.8577 33.4213C21.9328 33.4406 22.0072 33.453 22.0832 33.453C22.4564 33.453 22.7862 33.2015 22.8862 32.8431C22.9486 32.628 22.921 32.4025 22.8118 32.2079C22.7021 32.0142 22.5238 31.8731 22.3091 31.813L22.3091 31.813Z" fill="#907F53"></path>
</svg>
