<svg width="50" height="50" viewBox="0 0 50 50" fill="none" xmlns="http://www.w3.org/2000/svg">
<path d="M29.9338 22.0336H27.8252L26.7444 20.9528L25.5383 19.7509C30.5292 19.618 34.5517 15.5294 34.5517 10.508C34.5517 5.4017 30.3957 1.25 25.2928 1.25C20.1864 1.25 16.0347 5.40143 16.0347 10.508C16.0347 15.5296 20.0544 19.6187 25.0419 19.7509L23.8383 20.9528L22.7592 22.0336H20.6491C14.0737 22.0336 8.75 27.3587 8.75 33.93V49.4568H41.8286V33.93C41.8261 27.3591 36.5018 22.0336 29.9339 22.0336H29.9338ZM27.6033 39.7318L25.291 42.0403L22.9779 39.7318L24.7915 26.53L22.9779 24.7171L25.291 22.4086L27.6033 24.7171L25.7897 26.53L27.6033 39.7318Z" fill="#907F53"></path>
</svg>
