<svg width="20" height="20" viewBox="0 0 20 20" fill="none" xmlns="http://www.w3.org/2000/svg">
  <g clip-path="url('#clip0_510_27390')">
    <path d="M19.5838 5.42338C19.4706 5.0194 19.25 4.65367 18.9455 4.36504C18.6324 4.06755 18.2487 3.85474 17.8305 3.74671C16.2655 3.33421 9.99551 3.33421 9.99551 3.33421C7.38162 3.30447 4.76837 3.43527 2.17051 3.72588C1.75234 3.84189 1.36932 4.05945 1.05551 4.35921C0.747181 4.65588 0.523848 5.02171 0.407181 5.42254C0.126925 6.93233 -0.00924233 8.46533 0.000514319 10.0009C-0.00948568 11.535 0.126348 13.0675 0.407181 14.5792C0.521348 14.9784 0.743848 15.3425 1.05301 15.6367C1.36218 15.9309 1.74718 16.1434 2.17051 16.2559C3.75635 16.6675 9.99551 16.6675 9.99551 16.6675C12.6127 16.6973 15.2293 16.5665 17.8305 16.2759C18.2487 16.1678 18.6324 15.955 18.9455 15.6575C19.2499 15.369 19.4702 15.0032 19.583 14.5992C19.8706 13.09 20.0104 11.5564 20.0005 10.02C20.0221 8.47721 19.8825 6.93635 19.5838 5.42254V5.42338ZM8.00218 12.8542V7.14838L13.2188 10.0017L8.00218 12.8542Z" fill="#7C7C7C"></path>
  </g>
  <defs>
    <clipPath id="clip0_510_27390">
      <rect width="20" height="20" fill="white"></rect>
    </clipPath>
  </defs>
</svg>